<?xml version="1.0" encoding="UTF-8"?>
<svg version="1.1" xmlns="http://www.w3.org/2000/svg" width="800" height="800">
<path d="M0 0 C1.72067883 1.54721202 3.40448888 3.13581296 5.0625 4.75 C5.66078613 5.31702637 6.25907227 5.88405273 6.87548828 6.46826172 C16.13991226 15.26754523 24.57600799 24.39429793 32.0625 34.75 C32.50899902 35.36278809 32.95549805 35.97557617 33.41552734 36.60693359 C50.88047515 60.75821377 63.74705605 87.85694093 76.91723633 114.49584961 C80.07105873 120.85503847 83.319136 127.15121218 86.64453125 133.421875 C92.52153355 144.52331141 98.13918884 155.75261841 103.74829102 166.99121094 C105.4913228 170.482619 107.23860852 173.97187414 108.98632812 177.4609375 C165.86030823 291.16927931 165.86030823 291.16927931 155.0625 344.75 C154.8965332 345.57902832 154.73056641 346.40805664 154.55957031 347.26220703 C151.43202985 362.19137475 145.29579936 375.89431808 139.0625 389.75 C138.7538501 390.43692932 138.4452002 391.12385864 138.12719727 391.831604 C129.99622749 409.90898404 121.68601914 427.90180294 113.0625 445.75 C113.60355881 445.91902328 114.14461761 446.08804657 114.70207214 446.26219177 C120.45665705 448.11284874 125.92794896 450.34327554 131.42578125 452.84765625 C132.29784714 453.24141953 133.16991302 453.6351828 134.06840515 454.0408783 C135.90897193 454.8733093 137.74854281 455.70794548 139.5871582 456.54467773 C142.32681279 457.79058598 145.07032076 459.02766305 147.81445312 460.26367188 C156.94982154 464.39482456 166.02142304 468.63904881 175.00390625 473.09375 C176.22573357 473.69564903 176.22573357 473.69564903 177.47224426 474.30970764 C193.13228379 482.16284628 203.86175248 494.1162508 213.68359375 508.359375 C215.13787242 510.46423659 216.6217011 512.44975979 218.22265625 514.453125 C229.75534034 528.94119826 233.50656356 547.9787442 237.0625 565.75 C237.24329102 566.63671387 237.42408203 567.52342773 237.61035156 568.43701172 C240.51134266 583.55042558 240.34393991 598.85818419 240.375 614.1875 C240.37876648 615.22270782 240.38253296 616.25791565 240.38641357 617.32449341 C240.45391853 653.97714432 240.45391853 653.97714432 230.765625 663.84375 C229.54024431 664.82385223 228.30419271 665.79064739 227.0625 666.75 C226.230053 667.48070861 225.39760599 668.21141721 224.53993332 668.96426851 C213.05784613 677.83357063 201.42830519 676.99184839 187.41793823 676.83927917 C184.84526568 676.84431996 182.27259833 676.85336639 179.69995236 676.86610329 C174.1846845 676.88733299 168.67026439 676.87631987 163.15506768 676.8428427 C155.08199616 676.79404 147.00953182 676.79661265 138.93635451 676.81126532 C125.95108636 676.83393454 112.9661486 676.82091169 99.98091888 676.78591537 C83.51461814 676.74235581 67.04935254 676.77268555 50.58306885 676.83169556 C45.52605893 676.84889975 40.46904749 676.86559791 35.41203499 676.88202381 C33.54579161 676.88811772 33.54579161 676.88811772 31.64184634 676.89433474 C8.9630091 676.96546296 -13.71599591 676.97024694 -36.39492569 676.98437435 C-41.19573926 676.98738523 -45.99655249 676.99075636 -50.79736567 676.99434257 C-51.83579414 676.99511812 -51.83579414 676.99511812 -52.89520097 676.99590934 C-53.93714167 676.99668787 -53.93714167 676.99668787 -55.00013169 676.99748212 C-79.56136437 677.01583201 -104.12259752 677.03155257 -128.68383598 677.03938007 C-130.14748593 677.03985472 -131.61113589 677.0403306 -133.07478584 677.04080774 C-134.16269059 677.0411623 -134.16269059 677.0411623 -135.27257321 677.04152403 C-138.94278318 677.04272438 -142.61299316 677.04394015 -146.28320312 677.04516602 C-147.37534762 677.04552624 -147.37534762 677.04552624 -148.48955564 677.04589374 C-172.40466038 677.05388921 -196.31971723 677.07762114 -220.23480088 677.10972196 C-245.83262142 677.14401734 -271.43041361 677.16372497 -297.02825749 677.16702431 C-299.83072926 677.16744165 -302.63320101 677.16792115 -305.43567276 677.16844749 C-306.46990498 677.16863228 -306.46990498 677.16863228 -307.52503079 677.1688208 C-318.5496197 677.17113891 -329.5741505 677.18670399 -340.59871874 677.20728934 C-351.60693162 677.22752497 -362.61508435 677.23269824 -373.62331383 677.22351871 C-379.56803848 677.21897498 -385.51257467 677.22087039 -391.45727348 677.24028015 C-396.89801219 677.25789502 -402.3384245 677.25692841 -407.77916659 677.24138286 C-409.74115293 677.239006 -411.70316185 677.24333432 -413.66511367 677.25521151 C-430.53148116 677.35098411 -447.10055149 675.01215977 -459.9375 662.75 C-461.44921875 659.5 -461.44921875 659.5 -462.625 655.75 C-463.02074219 654.533125 -463.41648437 653.31625 -463.82421875 652.0625 C-466.70094985 641.60996008 -467.34531942 631.23905136 -467.3125 620.4375 C-467.31162384 619.72513184 -467.31074768 619.01276367 -467.30984497 618.27880859 C-467.24699633 602.56882348 -465.6250628 587.23883648 -462.9375 571.75 C-462.81634827 571.05056274 -462.69519653 570.35112549 -462.57037354 569.63049316 C-458.73558782 547.77104563 -454.23452905 528.39025067 -439.9375 510.75 C-438.88949219 509.41775391 -438.88949219 509.41775391 -437.8203125 508.05859375 C-435.57242468 505.24673408 -433.26895716 502.49289077 -430.9375 499.75 C-430.12796875 498.780625 -429.3184375 497.81125 -428.484375 496.8125 C-410.11140594 475.68908647 -384.44092651 464.56351839 -359.2890625 453.5625 C-357.17102381 452.62692463 -355.05374058 451.68963555 -352.9375 450.75 C-352.11733398 450.39164063 -351.29716797 450.03328125 -350.45214844 449.6640625 C-346.09812139 447.65482067 -343.789803 445.54579902 -340.9375 441.75 C-341.40422119 440.74662598 -341.87094238 439.74325195 -342.35180664 438.70947266 C-350.42943988 421.33084692 -358.49544585 403.94395759 -366.29953003 386.44036865 C-366.92187122 385.04709969 -367.54718753 383.65515492 -368.17581177 382.26470947 C-383.57813924 348.15109325 -388.37862465 306.71508044 -375.9375 270.75 C-375.6873262 270.02563751 -375.4371524 269.30127502 -375.17939758 268.55496216 C-370.84608861 256.17235582 -365.71918384 244.29603508 -360.125 232.4375 C-359.39320245 230.8707591 -358.66208408 229.30370079 -357.93164062 227.73632812 C-355.8166849 223.20644449 -353.68326978 218.68541876 -351.54763794 214.16525269 C-350.3936984 211.71763934 -349.24251798 209.26886715 -348.09469604 206.81838989 C-336.43741157 181.93278695 -324.36984755 157.26740163 -312.06762695 132.69458008 C-310.09230858 128.74862263 -308.12175596 124.80034324 -306.15551758 120.84985352 C-285.56163328 79.47516442 -285.56163328 79.47516442 -275.21733093 61.92814636 C-273.42725951 58.88162088 -271.67934298 55.8114877 -269.93049622 52.74116516 C-262.36794399 39.58487561 -253.73406464 28.1203587 -243.25488281 17.16162109 C-241.46062719 15.23901435 -239.79743137 13.21616675 -238.125 11.1875 C-235.57803691 8.23449932 -233.16673861 6.53178681 -229.7109375 4.78125 C-227.72122197 3.6242348 -226.28543557 2.28031602 -224.625 0.6875 C-201.87704099 -19.74191704 -170.45051018 -28.85082332 -140.9375 -33.25 C-140.27411621 -33.3538501 -139.61073242 -33.4577002 -138.92724609 -33.56469727 C-92.84361809 -39.78570707 -37.179476 -29.24039992 0 0 Z M-272.5546875 215.50390625 C-275.44409998 219.04363275 -276.53747485 222.82280723 -277.6875 227.1875 C-277.89503906 227.91259766 -278.10257813 228.63769531 -278.31640625 229.38476562 C-280.2828004 236.44475495 -281.08696331 243.34369387 -281.09863281 250.67529297 C-281.10359772 251.43595062 -281.10856262 252.19660828 -281.11367798 252.98031616 C-281.12821246 255.4842828 -281.13509403 257.98818567 -281.140625 260.4921875 C-281.14345238 261.35923435 -281.14627975 262.2262812 -281.14919281 263.1196022 C-281.16416505 267.72605946 -281.17340162 272.33248568 -281.17773438 276.93896484 C-281.18208624 280.69752893 -281.19585143 284.45585923 -281.21875 288.21435547 C-281.46804987 329.96421602 -278.42101716 369.4397163 -257.9375 406.75 C-257.58961426 407.38389648 -257.24172852 408.01779297 -256.88330078 408.67089844 C-248.76609863 423.24099768 -238.39782397 435.70461445 -226.9375 447.75 C-226.22335937 448.52859375 -225.50921875 449.3071875 -224.7734375 450.109375 C-202.9454939 473.16360756 -169.44684967 488.05342025 -137.9375 490.75 C-135.26937724 490.78815428 -132.60618194 490.77141352 -129.9375 490.75 C-129.36434378 484.59390582 -128.79478469 478.43749324 -128.22851562 472.28076172 C-128.03548745 470.18757195 -127.84148704 468.09447159 -127.64648438 466.00146484 C-127.36591317 462.98818736 -127.08887203 459.97460267 -126.8125 456.9609375 C-126.72500488 456.02945892 -126.63750977 455.09798035 -126.54736328 454.13827515 C-126.13980785 449.65747172 -125.83317611 445.25548821 -125.9375 440.75 C-116.57487164 439.02813731 -109.1942063 437.98942013 -99.9375 440.75 C-99.85185791 441.8738208 -99.76621582 442.9976416 -99.67797852 444.15551758 C-99.35635227 448.37318976 -99.03367222 452.59078081 -98.71069336 456.80834961 C-98.57173937 458.6247343 -98.4330613 460.44114012 -98.29467773 462.25756836 C-97.21204095 476.51183031 -97.21204095 476.51183031 -95.9375 490.75 C-61.66158627 492.38218637 -26.745167 474.39956337 -1.75 452.25 C-0.13916861 450.75715944 1.46523782 449.25735007 3.0625 447.75 C3.79984375 447.07710937 4.5371875 446.40421875 5.296875 445.7109375 C41.71818278 411.22693333 53.5049858 358.94878798 55.0625 310.75 C55.28145629 300.46148335 55.33227643 290.17214102 55.35766602 279.8815918 C55.36878226 275.86118266 55.40332669 271.84131878 55.44283772 267.8211031 C55.46921316 264.67312229 55.47737525 261.52526925 55.48094749 258.37718773 C55.48574467 256.89631575 55.49715531 255.41544668 55.51598549 253.93468666 C55.69094397 239.29050009 53.21747348 226.1883939 45.0625 213.75 C44.63453125 213.09515625 44.2065625 212.4403125 43.765625 211.765625 C36.25849937 201.78556387 22.84892279 197.28706927 10.99492168 195.21336746 C6.31694867 194.66214975 1.74365471 194.60513038 -2.9617157 194.60955811 C-3.95561666 194.60658698 -4.94951762 194.60361586 -5.97353679 194.6005547 C-9.29576164 194.59190019 -12.61795033 194.59036221 -15.94018555 194.58886719 C-18.32565894 194.58423673 -20.7111316 194.57921177 -23.09660339 194.57382202 C-29.5719934 194.56071835 -36.04737651 194.55421992 -42.52277732 194.54981136 C-46.57078224 194.54704279 -50.61878479 194.54280435 -54.6667881 194.53830719 C-65.88839791 194.52611977 -77.11000584 194.51581918 -88.33162212 194.5124321 C-89.04895468 194.51221253 -89.76628723 194.51199297 -90.50535714 194.51176675 C-91.22434223 194.51154847 -91.94332733 194.51133019 -92.68409985 194.5111053 C-94.14088102 194.51066184 -95.59766219 194.51021528 -97.05444336 194.50976562 C-97.77704713 194.5095442 -98.4996509 194.50932277 -99.24415175 194.50909463 C-110.94650816 194.50514863 -122.64880222 194.48769833 -134.35113456 194.4644061 C-146.38378863 194.44065093 -158.41641146 194.42822837 -170.44908935 194.42706418 C-177.19772448 194.4261498 -183.94627833 194.42045733 -190.69489098 194.40224457 C-197.04541043 194.3857361 -203.39577598 194.38362198 -209.74630928 194.39238358 C-212.07142423 194.39315244 -214.39654756 194.38883116 -216.72164154 194.37892532 C-240.27746767 194.28448783 -255.74127415 197.81218027 -272.5546875 215.50390625 Z " fill="#FEFEFE" transform="translate(512.9375,79.25)"/>
<path d="M0 0 C0 0.66 0 1.32 0 2 C0.66 2.185625 1.32 2.37125 2 2.5625 C8.84959598 5.84459807 13.72914431 11.56046028 18.1640625 17.59375 C19.99161046 19.30595283 19.99161046 19.30595283 22.84375 18.87109375 C32.20255213 16.28815702 38.69468225 12.24509179 44.28125 4.26953125 C46.85243358 0.8744002 48.69002916 -0.73870729 52.91796875 -1.58203125 C69.28511732 -2.73574901 69.28511732 -2.73574901 76.0625 3 C78.4959856 5.76738246 79.50094594 7.74994801 79.6875 11.4375 C78.43778873 27.78372346 72.32746193 41.18893543 61 53 C56.76641687 56.24574707 52.48952904 58.11159124 47.4375 59.6875 C46.79103516 59.89955078 46.14457031 60.11160156 45.47851562 60.33007812 C31.44999446 64.85402645 11.52700174 65.81087453 -2 59 C-10.74154874 53.2610037 -17.41526469 44.7072351 -23 36 C-23.51731689 35.2575 -24.03463379 34.515 -24.56762695 33.75 C-27.27504164 28.55205914 -26.55379062 22.68278505 -26.5625 16.9375 C-26.59923828 15.65810547 -26.63597656 14.37871094 -26.67382812 13.06054688 C-26.71683195 3.95807087 -26.71683195 3.95807087 -24.70361328 1.26733398 C-17.39649784 -3.70565705 -8.10263828 -1.8906156 0 0 Z " fill="#FFFFFF" transform="translate(438,429)"/>
<path d="M0 0 C2.09705609 1.66086842 3.96764656 3.27524594 5.875 5.125 C6.39747314 5.61202393 6.91994629 6.09904785 7.45825195 6.60083008 C10.54009992 9.4965612 13.3705476 12.53183589 16.1875 15.6875 C18.90571467 18.42827246 20.67610972 19.56387571 24.5625 19.8125 C29.22468999 19.71555465 32.63467464 16.99738439 36 14 C37.90791115 11.72529663 39.52308656 9.30929343 41.125 6.8125 C45.97829413 -0.74654438 45.97829413 -0.74654438 51 -2 C57.70804263 -3.39797863 64.50403399 -3.33616392 71 -1 C73.31201602 0.66257332 73.90809592 1.59824789 74.546875 4.390625 C75.13742246 12.70371621 74.7359663 20.71188721 74 29 C73.34 29 72.68 29 72 29 C71.90203125 29.86496094 71.8040625 30.72992188 71.703125 31.62109375 C70.93367855 35.31871141 69.67277729 37.82303826 67.75 41.0625 C67.16734375 42.06410156 66.5846875 43.06570313 65.984375 44.09765625 C59.3999269 53.72805968 48.84833634 58.41949036 37.75 60.9375 C20.36913599 63.78327877 5.37257475 62.61440205 -9.5625 52.5 C-11.0572051 51.35330832 -12.53796883 50.18806986 -14 49 C-14.64324219 48.51789063 -15.28648437 48.03578125 -15.94921875 47.5390625 C-23.49026904 41.61745685 -29.98319589 31.97237101 -31.3828125 22.375 C-31.70824795 14.73811476 -30.18506607 6.65834898 -25.0546875 0.765625 C-18.18786566 -5.13514206 -7.73554789 -3.22067511 0 0 Z " fill="#FFFFFF" transform="translate(314,430)"/>
<path d="M0 0 C0.77662491 -0.01161667 1.55324982 -0.02323334 2.35340881 -0.03520203 C11.19384407 -0.05159544 17.58895557 3.02751167 24.5546875 8.16015625 C24.16525126 15.76087738 23.30663431 23.14375767 22.01171875 30.63671875 C21.87173462 31.46083252 21.73175049 32.28494629 21.58752441 33.1340332 C21.24586606 35.14318828 20.90064864 37.1517376 20.5546875 39.16015625 C9.68887472 39.25284725 -1.17684396 39.32391679 -12.04297161 39.36740494 C-17.08860428 39.38827741 -22.1339664 39.41658899 -27.17944336 39.46191406 C-32.04886852 39.50538373 -36.91803349 39.52929592 -41.78763771 39.53966522 C-43.6452017 39.54705457 -45.5027515 39.56148428 -47.3602047 39.58307648 C-49.96269854 39.6121256 -52.56411809 39.61611166 -55.16674805 39.61425781 C-55.9342337 39.62863892 -56.70171936 39.64302002 -57.49246216 39.65783691 C-61.16794206 39.62951791 -63.27426965 39.26672412 -66.42228699 37.30535889 C-69.04909079 34.51991381 -69.08887779 33.01288244 -69.109375 29.22265625 C-69.11582031 28.08054687 -69.12226563 26.9384375 -69.12890625 25.76171875 C-69.10957031 24.57320313 -69.09023438 23.3846875 -69.0703125 22.16015625 C-69.08964844 20.97164063 -69.10898437 19.783125 -69.12890625 18.55859375 C-69.12246094 17.41648437 -69.11601562 16.274375 -69.109375 15.09765625 C-69.10373535 14.05480469 -69.0980957 13.01195312 -69.09228516 11.9375 C-68.21181013 8.15777024 -66.68955887 7.18720363 -63.4453125 5.16015625 C-54.28931622 1.33827278 -43.83550044 1.46682175 -34.06665039 1.0793457 C-31.4115434 0.97379838 -28.75771064 0.85085899 -26.10351562 0.72460938 C-17.40559181 0.32783066 -8.7068738 0.07015643 0 0 Z " fill="#FFFFFF" transform="translate(492.4453125,348.83984375)"/>
<path d="M0 0 C3.088301 0.20387737 6.1772144 0.39529492 9.26635742 0.5859375 C11.26184887 0.71539674 13.25729352 0.84557976 15.25268555 0.9765625 C16.61397331 1.05951065 16.61397331 1.05951065 18.00276184 1.14413452 C32.83815264 2.16366008 32.83815264 2.16366008 38.84790039 5.58203125 C41.29851234 8.45408602 41.40820107 10.01820316 41.4284668 13.765625 C41.43491211 14.90773438 41.44135742 16.04984375 41.44799805 17.2265625 C41.41899414 19.00933594 41.41899414 19.00933594 41.3894043 20.828125 C41.40874023 22.01664062 41.42807617 23.20515625 41.44799805 24.4296875 C41.44155273 25.57179688 41.43510742 26.71390625 41.4284668 27.890625 C41.42282715 28.93347656 41.4171875 29.97632813 41.41137695 31.05078125 C40.51327975 34.90616002 39.10102873 35.74924853 35.7644043 37.828125 C32.87146768 38.19526685 30.37069183 38.33628276 27.48583984 38.28222656 C26.25579475 38.28310272 26.25579475 38.28310272 25.00090027 38.28399658 C22.3005383 38.28121817 19.60129128 38.25013845 16.90112305 38.21875 C15.0249746 38.21128673 13.14881834 38.2055942 11.2726593 38.20159912 C6.34217691 38.18634958 1.4121682 38.14707357 -3.51812744 38.1027832 C-8.55214023 38.06181587 -13.58622978 38.04358498 -18.62036133 38.0234375 C-28.49231388 37.9805787 -38.36391535 37.91233554 -48.2355957 37.828125 C-48.72586827 35.16353432 -49.21071718 32.49813641 -49.69262695 29.83203125 C-49.82995239 29.08876587 -49.96727783 28.34550049 -50.10876465 27.57971191 C-51.3484502 20.67985842 -51.91364632 13.83329959 -52.2355957 6.828125 C-50.72142477 5.85929933 -49.19885416 4.90359748 -47.6730957 3.953125 C-46.82618164 3.41945313 -45.97926758 2.88578125 -45.10668945 2.3359375 C-32.01175667 -4.54112924 -14.26304294 -0.9486651 0 0 Z " fill="#FBFBFB" transform="translate(335.235595703125,350.171875)"/>
</svg>
